STARTFONT 2.1
FONT -FontForge-Times Cyrillic-Normal-R-Normal--5-40-100-100-P-59-WinRoman-0
SIZE 4 100 100
FONTBOUNDINGBOX 11 6 0 -1
COMMENT "Generated by fontforge, http://fontforge.sourceforge.net"
COMMENT "Copyright (C) Steepler Ltd., 1990-92."
STARTPROPERTIES 34
FOUNDRY "FontForge"
FAMILY_NAME "Times Cyrillic"
WEIGHT_NAME "Normal"
SLANT "R"
SETWIDTH_NAME "Normal"
ADD_STYLE_NAME ""
PIXEL_SIZE 5
POINT_SIZE 40
RESOLUTION_X 100
RESOLUTION_Y 100
SPACING "P"
AVERAGE_WIDTH 59
CHARSET_REGISTRY "WinRoman"
CHARSET_ENCODING "0"
FONTNAME_REGISTRY ""
CHARSET_COLLECTIONS "WinRoman"
FONT_NAME "TimesCyrillic"
FACE_NAME "Times Cyrillic"
COPYRIGHT "Copyright (C) Steepler Ltd., 1990-92."
FONT_VERSION "001.000"
FONT_ASCENT 4
FONT_DESCENT 1
UNDERLINE_POSITION 0
UNDERLINE_THICKNESS 1
X_HEIGHT 3
CAP_HEIGHT 4
RAW_ASCENT 800
RAW_DESCENT 200
NORM_SPACE 2
RELATIVE_WEIGHT 40
RELATIVE_SETWIDTH 50
FIGURE_WIDTH 5
AVG_LOWERCASE_WIDTH 55
AVG_UPPERCASE_WIDTH 81
ENDPROPERTIES
CHARS 224
STARTCHAR space
ENCODING 32
SWIDTH 500 0
DWIDTH 2 0
BBX 1 1 1 -1
BITMAP
00
ENDCHAR
STARTCHAR exclam
ENCODING 33
SWIDTH 562 0
DWIDTH 3 0
BBX 1 5 1 0
BITMAP
80
80
80
00
80
ENDCHAR
STARTCHAR quotedbl
ENCODING 34
SWIDTH 688 0
DWIDTH 5 0
BBX 3 2 1 3
BITMAP
A0
A0
ENDCHAR
STARTCHAR numbersign
ENCODING 35
SWIDTH 1562 0
DWIDTH 8 0
BBX 7 5 0 0
BITMAP
14
7E
28
FC
50
ENDCHAR
STARTCHAR dollar
ENCODING 36
SWIDTH 1000 0
DWIDTH 5 0
BBX 4 6 0 -1
BITMAP
70
A0
60
50
E0
40
ENDCHAR
STARTCHAR percent
ENCODING 37
SWIDTH 1812 0
DWIDTH 10 0
BBX 9 5 0 0
BITMAP
6200
9400
6B00
1480
2300
ENDCHAR
STARTCHAR ampersand
ENCODING 38
SWIDTH 1562 0
DWIDTH 9 0
BBX 8 5 1 0
BITMAP
78
80
7B
84
7A
ENDCHAR
STARTCHAR quotesingle
ENCODING 39
SWIDTH 500 0
DWIDTH 3 0
BBX 1 2 1 3
BITMAP
80
80
ENDCHAR
STARTCHAR parenleft
ENCODING 40
SWIDTH 688 0
DWIDTH 4 0
BBX 2 6 1 -1
BITMAP
40
80
80
80
80
40
ENDCHAR
STARTCHAR parenright
ENCODING 41
SWIDTH 688 0
DWIDTH 4 0
BBX 2 6 1 -1
BITMAP
80
40
40
40
40
80
ENDCHAR
STARTCHAR asterisk
ENCODING 42
SWIDTH 1000 0
DWIDTH 5 0
BBX 4 3 0 2
BITMAP
90
60
90
ENDCHAR
STARTCHAR plus
ENCODING 43
SWIDTH 1188 0
DWIDTH 7 0
BBX 5 3 1 1
BITMAP
20
F8
20
ENDCHAR
STARTCHAR comma
ENCODING 44
SWIDTH 500 0
DWIDTH 3 0
BBX 1 2 1 -1
BITMAP
80
80
ENDCHAR
STARTCHAR hyphen
ENCODING 45
SWIDTH 625 0
DWIDTH 3 0
BBX 3 1 0 2
BITMAP
E0
ENDCHAR
STARTCHAR period
ENCODING 46
SWIDTH 500 0
DWIDTH 2 0
BBX 1 1 1 0
BITMAP
80
ENDCHAR
STARTCHAR slash
ENCODING 47
SWIDTH 562 0
DWIDTH 3 0
BBX 3 6 0 -1
BITMAP
20
20
40
40
80
80
ENDCHAR
STARTCHAR zero
ENCODING 48
SWIDTH 1000 0
DWIDTH 5 0
BBX 4 5 0 0
BITMAP
60
90
90
90
60
ENDCHAR
STARTCHAR one
ENCODING 49
SWIDTH 1000 0
DWIDTH 5 0
BBX 3 5 1 0
BITMAP
40
C0
40
40
E0
ENDCHAR
STARTCHAR two
ENCODING 50
SWIDTH 1000 0
DWIDTH 5 0
BBX 4 5 0 0
BITMAP
60
90
20
40
F0
ENDCHAR
STARTCHAR three
ENCODING 51
SWIDTH 1000 0
DWIDTH 5 0
BBX 4 5 0 0
BITMAP
60
90
20
90
60
ENDCHAR
STARTCHAR four
ENCODING 52
SWIDTH 1000 0
DWIDTH 5 0
BBX 4 5 0 0
BITMAP
30
50
90
F0
10
ENDCHAR
STARTCHAR five
ENCODING 53
SWIDTH 1000 0
DWIDTH 5 0
BBX 4 5 0 0
BITMAP
F0
80
60
10
E0
ENDCHAR
STARTCHAR six
ENCODING 54
SWIDTH 1000 0
DWIDTH 5 0
BBX 4 5 0 0
BITMAP
60
80
E0
90
60
ENDCHAR
STARTCHAR seven
ENCODING 55
SWIDTH 1000 0
DWIDTH 5 0
BBX 4 5 0 0
BITMAP
F0
90
20
40
40
ENDCHAR
STARTCHAR eight
ENCODING 56
SWIDTH 1000 0
DWIDTH 5 0
BBX 4 5 0 0
BITMAP
60
90
60
90
60
ENDCHAR
STARTCHAR nine
ENCODING 57
SWIDTH 1000 0
DWIDTH 5 0
BBX 4 5 0 0
BITMAP
60
90
70
10
60
ENDCHAR
STARTCHAR colon
ENCODING 58
SWIDTH 562 0
DWIDTH 3 0
BBX 1 4 1 0
BITMAP
80
00
00
80
ENDCHAR
STARTCHAR semicolon
ENCODING 59
SWIDTH 562 0
DWIDTH 3 0
BBX 1 5 1 -1
BITMAP
80
00
00
80
80
ENDCHAR
STARTCHAR less
ENCODING 60
SWIDTH 1188 0
DWIDTH 7 0
BBX 6 5 0 0
BITMAP
0C
30
C0
30
0C
ENDCHAR
STARTCHAR equal
ENCODING 61
SWIDTH 1188 0
DWIDTH 7 0
BBX 5 3 1 1
BITMAP
F8
00
F8
ENDCHAR
STARTCHAR greater
ENCODING 62
SWIDTH 1188 0
DWIDTH 7 0
BBX 6 5 1 0
BITMAP
C0
30
0C
30
C0
ENDCHAR
STARTCHAR question
ENCODING 63
SWIDTH 1000 0
DWIDTH 5 0
BBX 4 5 1 0
BITMAP
E0
10
60
00
60
ENDCHAR
STARTCHAR at
ENCODING 64
SWIDTH 2000 0
DWIDTH 9 0
BBX 8 6 0 -1
BITMAP
3E
41
8D
9F
40
3C
ENDCHAR
STARTCHAR A
ENCODING 65
SWIDTH 1562 0
DWIDTH 7 0
BBX 7 5 0 0
BITMAP
10
28
44
FE
82
ENDCHAR
STARTCHAR B
ENCODING 66
SWIDTH 1375 0
DWIDTH 7 0
BBX 5 5 1 0
BITMAP
F0
88
F0
88
F0
ENDCHAR
STARTCHAR C
ENCODING 67
SWIDTH 1438 0
DWIDTH 8 0
BBX 6 5 1 0
BITMAP
78
84
80
84
78
ENDCHAR
STARTCHAR D
ENCODING 68
SWIDTH 1625 0
DWIDTH 9 0
BBX 7 5 1 0
BITMAP
FC
42
42
42
FC
ENDCHAR
STARTCHAR E
ENCODING 69
SWIDTH 1375 0
DWIDTH 8 0
BBX 6 5 1 0
BITMAP
FC
44
70
44
FC
ENDCHAR
STARTCHAR F
ENCODING 70
SWIDTH 1250 0
DWIDTH 8 0
BBX 6 5 1 0
BITMAP
FC
44
70
40
E0
ENDCHAR
STARTCHAR G
ENCODING 71
SWIDTH 1562 0
DWIDTH 8 0
BBX 7 5 1 0
BITMAP
78
80
8E
84
78
ENDCHAR
STARTCHAR H
ENCODING 72
SWIDTH 1625 0
DWIDTH 9 0
BBX 7 5 1 0
BITMAP
EE
44
7C
44
EE
ENDCHAR
STARTCHAR I
ENCODING 73
SWIDTH 750 0
DWIDTH 5 0
BBX 3 5 1 0
BITMAP
E0
40
40
40
E0
ENDCHAR
STARTCHAR J
ENCODING 74
SWIDTH 812 0
DWIDTH 5 0
BBX 5 5 0 0
BITMAP
38
10
10
10
E0
ENDCHAR
STARTCHAR K
ENCODING 75
SWIDTH 1438 0
DWIDTH 9 0
BBX 7 5 1 0
BITMAP
E6
48
70
48
E6
ENDCHAR
STARTCHAR L
ENCODING 76
SWIDTH 1312 0
DWIDTH 8 0
BBX 6 5 1 0
BITMAP
E0
40
40
44
FC
ENDCHAR
STARTCHAR M
ENCODING 77
SWIDTH 1875 0
DWIDTH 11 0
BBX 9 5 1 0
BITMAP
C180
6300
5500
4900
E380
ENDCHAR
STARTCHAR N
ENCODING 78
SWIDTH 1562 0
DWIDTH 10 0
BBX 8 5 1 0
BITMAP
E7
52
4A
46
E2
ENDCHAR
STARTCHAR O
ENCODING 79
SWIDTH 1562 0
DWIDTH 8 0
BBX 6 5 1 0
BITMAP
78
84
84
84
78
ENDCHAR
STARTCHAR P
ENCODING 80
SWIDTH 1188 0
DWIDTH 8 0
BBX 6 5 1 0
BITMAP
F8
44
78
40
E0
ENDCHAR
STARTCHAR Q
ENCODING 81
SWIDTH 1562 0
DWIDTH 8 0
BBX 6 6 1 -1
BITMAP
78
84
84
84
78
1C
ENDCHAR
STARTCHAR R
ENCODING 82
SWIDTH 1500 0
DWIDTH 9 0
BBX 7 5 1 0
BITMAP
F8
44
78
44
E6
ENDCHAR
STARTCHAR S
ENCODING 83
SWIDTH 1125 0
DWIDTH 6 0
BBX 4 5 1 0
BITMAP
70
80
60
10
E0
ENDCHAR
STARTCHAR T
ENCODING 84
SWIDTH 1250 0
DWIDTH 7 0
BBX 5 5 1 0
BITMAP
F8
A8
20
20
70
ENDCHAR
STARTCHAR U
ENCODING 85
SWIDTH 1625 0
DWIDTH 9 0
BBX 7 5 1 0
BITMAP
EE
44
44
44
38
ENDCHAR
STARTCHAR V
ENCODING 86
SWIDTH 1562 0
DWIDTH 9 0
BBX 7 5 1 0
BITMAP
C6
44
28
28
10
ENDCHAR
STARTCHAR W
ENCODING 87
SWIDTH 2000 0
DWIDTH 11 0
BBX 9 5 1 0
BITMAP
DD80
4900
5500
2200
2200
ENDCHAR
STARTCHAR X
ENCODING 88
SWIDTH 1562 0
DWIDTH 8 0
BBX 6 5 1 0
BITMAP
CC
48
30
48
CC
ENDCHAR
STARTCHAR Y
ENCODING 89
SWIDTH 1500 0
DWIDTH 9 0
BBX 7 5 1 0
BITMAP
EE
44
28
10
38
ENDCHAR
STARTCHAR Z
ENCODING 90
SWIDTH 1438 0
DWIDTH 7 0
BBX 5 5 1 0
BITMAP
F8
90
20
48
F8
ENDCHAR
STARTCHAR bracketleft
ENCODING 91
SWIDTH 625 0
DWIDTH 3 0
BBX 2 6 1 -1
BITMAP
C0
80
80
80
80
C0
ENDCHAR
STARTCHAR backslash
ENCODING 92
SWIDTH 562 0
DWIDTH 3 0
BBX 3 6 0 -1
BITMAP
80
80
40
40
20
20
ENDCHAR
STARTCHAR bracketright
ENCODING 93
SWIDTH 625 0
DWIDTH 3 0
BBX 2 6 0 -1
BITMAP
C0
40
40
40
40
C0
ENDCHAR
STARTCHAR asciicircum
ENCODING 94
SWIDTH 1000 0
DWIDTH 7 0
BBX 5 3 1 2
BITMAP
20
50
88
ENDCHAR
STARTCHAR underscore
ENCODING 95
SWIDTH 1000 0
DWIDTH 5 0
BBX 5 1 0 -1
BITMAP
F8
ENDCHAR
STARTCHAR grave
ENCODING 96
SWIDTH 1000 0
DWIDTH 5 0
BBX 2 1 1 4
BITMAP
C0
ENDCHAR
STARTCHAR a
ENCODING 97
SWIDTH 1000 0
DWIDTH 4 0
BBX 3 4 1 0
BITMAP
E0
20
A0
E0
ENDCHAR
STARTCHAR b
ENCODING 98
SWIDTH 1062 0
DWIDTH 6 0
BBX 5 5 1 0
BITMAP
C0
70
48
48
30
ENDCHAR
STARTCHAR c
ENCODING 99
SWIDTH 875 0
DWIDTH 5 0
BBX 4 4 1 0
BITMAP
60
90
80
60
ENDCHAR
STARTCHAR d
ENCODING 100
SWIDTH 1125 0
DWIDTH 6 0
BBX 5 5 1 0
BITMAP
10
70
90
90
78
ENDCHAR
STARTCHAR e
ENCODING 101
SWIDTH 938 0
DWIDTH 5 0
BBX 4 4 1 0
BITMAP
60
90
80
60
ENDCHAR
STARTCHAR f
ENCODING 102
SWIDTH 625 0
DWIDTH 3 0
BBX 2 5 1 0
BITMAP
40
80
C0
80
80
ENDCHAR
STARTCHAR g
ENCODING 103
SWIDTH 1000 0
DWIDTH 5 0
BBX 4 5 1 -1
BITMAP
60
90
70
10
60
ENDCHAR
STARTCHAR h
ENCODING 104
SWIDTH 1125 0
DWIDTH 6 0
BBX 6 5 0 0
BITMAP
C0
70
48
48
6C
ENDCHAR
STARTCHAR i
ENCODING 105
SWIDTH 562 0
DWIDTH 4 0
BBX 3 5 1 0
BITMAP
40
00
C0
40
60
ENDCHAR
STARTCHAR j
ENCODING 106
SWIDTH 438 0
DWIDTH 3 0
BBX 2 6 1 -1
BITMAP
40
00
C0
40
40
80
ENDCHAR
STARTCHAR k
ENCODING 107
SWIDTH 1062 0
DWIDTH 7 0
BBX 6 5 1 0
BITMAP
C0
48
70
48
6C
ENDCHAR
STARTCHAR l
ENCODING 108
SWIDTH 562 0
DWIDTH 4 0
BBX 3 5 1 0
BITMAP
C0
40
40
40
60
ENDCHAR
STARTCHAR m
ENCODING 109
SWIDTH 1688 0
DWIDTH 10 0
BBX 9 4 1 0
BITMAP
B600
4900
4900
6D80
ENDCHAR
STARTCHAR n
ENCODING 110
SWIDTH 1125 0
DWIDTH 7 0
BBX 6 4 1 0
BITMAP
B0
48
48
6C
ENDCHAR
STARTCHAR o
ENCODING 111
SWIDTH 1000 0
DWIDTH 5 0
BBX 4 4 1 0
BITMAP
60
90
90
60
ENDCHAR
STARTCHAR p
ENCODING 112
SWIDTH 1125 0
DWIDTH 6 0
BBX 5 5 1 -1
BITMAP
B0
48
70
40
60
ENDCHAR
STARTCHAR q
ENCODING 113
SWIDTH 1062 0
DWIDTH 5 0
BBX 4 5 1 -1
BITMAP
60
90
70
10
30
ENDCHAR
STARTCHAR r
ENCODING 114
SWIDTH 812 0
DWIDTH 5 0
BBX 4 4 1 0
BITMAP
B0
50
40
60
ENDCHAR
STARTCHAR s
ENCODING 115
SWIDTH 750 0
DWIDTH 4 0
BBX 3 4 1 0
BITMAP
E0
80
20
E0
ENDCHAR
STARTCHAR t
ENCODING 116
SWIDTH 625 0
DWIDTH 3 0
BBX 2 5 1 0
BITMAP
80
C0
80
80
C0
ENDCHAR
STARTCHAR u
ENCODING 117
SWIDTH 1125 0
DWIDTH 7 0
BBX 6 4 1 0
BITMAP
D8
48
48
34
ENDCHAR
STARTCHAR v
ENCODING 118
SWIDTH 938 0
DWIDTH 6 0
BBX 5 4 1 0
BITMAP
88
50
50
20
ENDCHAR
STARTCHAR w
ENCODING 119
SWIDTH 1375 0
DWIDTH 8 0
BBX 7 4 1 0
BITMAP
92
AA
44
44
ENDCHAR
STARTCHAR x
ENCODING 120
SWIDTH 938 0
DWIDTH 6 0
BBX 5 4 1 0
BITMAP
D8
20
50
D8
ENDCHAR
STARTCHAR y
ENCODING 121
SWIDTH 938 0
DWIDTH 6 0
BBX 5 5 1 -1
BITMAP
88
88
50
20
40
ENDCHAR
STARTCHAR z
ENCODING 122
SWIDTH 875 0
DWIDTH 4 0
BBX 3 4 1 0
BITMAP
E0
20
80
E0
ENDCHAR
STARTCHAR braceleft
ENCODING 123
SWIDTH 688 0
DWIDTH 5 0
BBX 3 6 1 -1
BITMAP
20
40
80
40
40
20
ENDCHAR
STARTCHAR bar
ENCODING 124
SWIDTH 562 0
DWIDTH 5 0
BBX 1 6 2 -1
BITMAP
80
80
80
80
80
80
ENDCHAR
STARTCHAR braceright
ENCODING 125
SWIDTH 688 0
DWIDTH 5 0
BBX 3 6 1 -1
BITMAP
80
40
20
40
40
80
ENDCHAR
STARTCHAR asciitilde
ENCODING 126
SWIDTH 1000 0
DWIDTH 8 0
BBX 6 2 1 3
BITMAP
64
98
ENDCHAR
STARTCHAR uni007F
ENCODING 127
SWIDTH 562 0
DWIDTH 4 0
BBX 2 5 1 0
BITMAP
C0
C0
C0
C0
C0
ENDCHAR
STARTCHAR Euro
ENCODING 128
SWIDTH 562 0
DWIDTH 4 0
BBX 2 5 1 0
BITMAP
C0
C0
C0
C0
C0
ENDCHAR
STARTCHAR NameMe.129
ENCODING 129
SWIDTH 562 0
DWIDTH 4 0
BBX 2 5 1 0
BITMAP
C0
C0
C0
C0
C0
ENDCHAR
STARTCHAR quotesinglbase
ENCODING 130
SWIDTH 562 0
DWIDTH 4 0
BBX 2 5 1 0
BITMAP
C0
C0
C0
C0
C0
ENDCHAR
STARTCHAR florin
ENCODING 131
SWIDTH 562 0
DWIDTH 4 0
BBX 2 5 1 0
BITMAP
C0
C0
C0
C0
C0
ENDCHAR
STARTCHAR quotedblbase
ENCODING 132
SWIDTH 562 0
DWIDTH 4 0
BBX 2 5 1 0
BITMAP
C0
C0
C0
C0
C0
ENDCHAR
STARTCHAR ellipsis
ENCODING 133
SWIDTH 562 0
DWIDTH 4 0
BBX 2 5 1 0
BITMAP
C0
C0
C0
C0
C0
ENDCHAR
STARTCHAR dagger
ENCODING 134
SWIDTH 562 0
DWIDTH 4 0
BBX 2 5 1 0
BITMAP
C0
C0
C0
C0
C0
ENDCHAR
STARTCHAR daggerdbl
ENCODING 135
SWIDTH 562 0
DWIDTH 4 0
BBX 2 5 1 0
BITMAP
C0
C0
C0
C0
C0
ENDCHAR
STARTCHAR circumflex
ENCODING 136
SWIDTH 562 0
DWIDTH 4 0
BBX 2 5 1 0
BITMAP
C0
C0
C0
C0
C0
ENDCHAR
STARTCHAR perthousand
ENCODING 137
SWIDTH 562 0
DWIDTH 4 0
BBX 2 5 1 0
BITMAP
C0
C0
C0
C0
C0
ENDCHAR
STARTCHAR Scaron
ENCODING 138
SWIDTH 562 0
DWIDTH 4 0
BBX 2 5 1 0
BITMAP
C0
C0
C0
C0
C0
ENDCHAR
STARTCHAR guilsinglleft
ENCODING 139
SWIDTH 562 0
DWIDTH 4 0
BBX 2 5 1 0
BITMAP
C0
C0
C0
C0
C0
ENDCHAR
STARTCHAR OE
ENCODING 140
SWIDTH 562 0
DWIDTH 4 0
BBX 2 5 1 0
BITMAP
C0
C0
C0
C0
C0
ENDCHAR
STARTCHAR NameMe.141
ENCODING 141
SWIDTH 562 0
DWIDTH 4 0
BBX 2 5 1 0
BITMAP
C0
C0
C0
C0
C0
ENDCHAR
STARTCHAR Zcaron
ENCODING 142
SWIDTH 562 0
DWIDTH 4 0
BBX 2 5 1 0
BITMAP
C0
C0
C0
C0
C0
ENDCHAR
STARTCHAR NameMe.143
ENCODING 143
SWIDTH 562 0
DWIDTH 4 0
BBX 2 5 1 0
BITMAP
C0
C0
C0
C0
C0
ENDCHAR
STARTCHAR NameMe.144
ENCODING 144
SWIDTH 562 0
DWIDTH 4 0
BBX 2 5 1 0
BITMAP
C0
C0
C0
C0
C0
ENDCHAR
STARTCHAR quoteleft
ENCODING 145
SWIDTH 500 0
DWIDTH 3 0
BBX 1 2 1 3
BITMAP
80
80
ENDCHAR
STARTCHAR quoteright
ENCODING 146
SWIDTH 500 0
DWIDTH 3 0
BBX 1 2 1 3
BITMAP
80
80
ENDCHAR
STARTCHAR quotedblleft
ENCODING 147
SWIDTH 562 0
DWIDTH 4 0
BBX 2 5 1 0
BITMAP
C0
C0
C0
C0
C0
ENDCHAR
STARTCHAR quotedblright
ENCODING 148
SWIDTH 562 0
DWIDTH 4 0
BBX 2 5 1 0
BITMAP
C0
C0
C0
C0
C0
ENDCHAR
STARTCHAR bullet
ENCODING 149
SWIDTH 562 0
DWIDTH 4 0
BBX 2 5 1 0
BITMAP
C0
C0
C0
C0
C0
ENDCHAR
STARTCHAR endash
ENCODING 150
SWIDTH 562 0
DWIDTH 4 0
BBX 2 5 1 0
BITMAP
C0
C0
C0
C0
C0
ENDCHAR
STARTCHAR emdash
ENCODING 151
SWIDTH 562 0
DWIDTH 4 0
BBX 2 5 1 0
BITMAP
C0
C0
C0
C0
C0
ENDCHAR
STARTCHAR tilde
ENCODING 152
SWIDTH 562 0
DWIDTH 4 0
BBX 2 5 1 0
BITMAP
C0
C0
C0
C0
C0
ENDCHAR
STARTCHAR trademark
ENCODING 153
SWIDTH 562 0
DWIDTH 4 0
BBX 2 5 1 0
BITMAP
C0
C0
C0
C0
C0
ENDCHAR
STARTCHAR scaron
ENCODING 154
SWIDTH 562 0
DWIDTH 4 0
BBX 2 5 1 0
BITMAP
C0
C0
C0
C0
C0
ENDCHAR
STARTCHAR guilsinglright
ENCODING 155
SWIDTH 562 0
DWIDTH 4 0
BBX 2 5 1 0
BITMAP
C0
C0
C0
C0
C0
ENDCHAR
STARTCHAR oe
ENCODING 156
SWIDTH 562 0
DWIDTH 4 0
BBX 2 5 1 0
BITMAP
C0
C0
C0
C0
C0
ENDCHAR
STARTCHAR NameMe.157
ENCODING 157
SWIDTH 562 0
DWIDTH 4 0
BBX 2 5 1 0
BITMAP
C0
C0
C0
C0
C0
ENDCHAR
STARTCHAR zcaron
ENCODING 158
SWIDTH 562 0
DWIDTH 4 0
BBX 2 5 1 0
BITMAP
C0
C0
C0
C0
C0
ENDCHAR
STARTCHAR Ydieresis
ENCODING 159
SWIDTH 562 0
DWIDTH 4 0
BBX 2 5 1 0
BITMAP
C0
C0
C0
C0
C0
ENDCHAR
STARTCHAR uni00A0
ENCODING 160
SWIDTH 500 0
DWIDTH 2 0
BBX 1 1 1 -1
BITMAP
00
ENDCHAR
STARTCHAR exclamdown
ENCODING 161
SWIDTH 1375 0
DWIDTH 8 0
BBX 6 5 1 0
BITMAP
FC
44
70
44
FC
ENDCHAR
STARTCHAR cent
ENCODING 162
SWIDTH 1000 0
DWIDTH 5 0
BBX 4 6 0 -1
BITMAP
20
70
A0
A0
70
20
ENDCHAR
STARTCHAR sterling
ENCODING 163
SWIDTH 1000 0
DWIDTH 5 0
BBX 5 5 0 0
BITMAP
70
80
60
48
B0
ENDCHAR
STARTCHAR currency
ENCODING 164
SWIDTH 1188 0
DWIDTH 6 0
BBX 5 5 0 0
BITMAP
88
70
88
70
88
ENDCHAR
STARTCHAR yen
ENCODING 165
SWIDTH 1312 0
DWIDTH 7 0
BBX 7 5 0 0
BITMAP
C6
28
FE
10
38
ENDCHAR
STARTCHAR brokenbar
ENCODING 166
SWIDTH 562 0
DWIDTH 5 0
BBX 1 5 2 0
BITMAP
80
80
00
80
80
ENDCHAR
STARTCHAR section
ENCODING 167
SWIDTH 1000 0
DWIDTH 5 0
BBX 4 6 0 -1
BITMAP
70
80
50
A0
10
E0
ENDCHAR
STARTCHAR dieresis
ENCODING 168
SWIDTH 1000 0
DWIDTH 5 0
BBX 3 1 1 4
BITMAP
A0
ENDCHAR
STARTCHAR copyright
ENCODING 169
SWIDTH 1500 0
DWIDTH 9 0
BBX 7 6 1 -1
BITMAP
7C
9A
A2
A2
9A
7C
ENDCHAR
STARTCHAR ordfeminine
ENCODING 170
SWIDTH 688 0
DWIDTH 4 0
BBX 4 5 0 0
BITMAP
60
A0
70
00
F0
ENDCHAR
STARTCHAR guillemotleft
ENCODING 171
SWIDTH 938 0
DWIDTH 5 0
BBX 4 3 0 1
BITMAP
50
A0
50
ENDCHAR
STARTCHAR logicalnot
ENCODING 172
SWIDTH 1188 0
DWIDTH 7 0
BBX 5 2 1 1
BITMAP
F8
08
ENDCHAR
STARTCHAR uni00AD
ENCODING 173
SWIDTH 625 0
DWIDTH 3 0
BBX 3 1 0 2
BITMAP
E0
ENDCHAR
STARTCHAR registered
ENCODING 174
SWIDTH 1500 0
DWIDTH 9 0
BBX 7 6 1 -1
BITMAP
7C
B2
AA
B2
AA
7C
ENDCHAR
STARTCHAR macron
ENCODING 175
SWIDTH 1000 0
DWIDTH 5 0
BBX 5 1 0 4
BITMAP
F8
ENDCHAR
STARTCHAR degree
ENCODING 176
SWIDTH 625 0
DWIDTH 4 0
BBX 3 3 0 2
BITMAP
40
A0
40
ENDCHAR
STARTCHAR plusminus
ENCODING 177
SWIDTH 1188 0
DWIDTH 7 0
BBX 5 5 1 0
BITMAP
20
F8
20
00
F8
ENDCHAR
STARTCHAR uni00B2
ENCODING 178
SWIDTH 625 0
DWIDTH 4 0
BBX 3 4 0 1
BITMAP
C0
20
40
E0
ENDCHAR
STARTCHAR uni00B3
ENCODING 179
SWIDTH 625 0
DWIDTH 4 0
BBX 3 4 0 1
BITMAP
C0
60
20
C0
ENDCHAR
STARTCHAR acute
ENCODING 180
SWIDTH 1000 0
DWIDTH 5 0
BBX 2 1 2 4
BITMAP
C0
ENDCHAR
STARTCHAR mu
ENCODING 181
SWIDTH 1000 0
DWIDTH 6 0
BBX 5 5 1 -1
BITMAP
90
90
90
E8
80
ENDCHAR
STARTCHAR paragraph
ENCODING 182
SWIDTH 1000 0
DWIDTH 5 0
BBX 4 5 1 0
BITMAP
70
E0
60
20
20
ENDCHAR
STARTCHAR periodcentered
ENCODING 183
SWIDTH 500 0
DWIDTH 3 0
BBX 1 1 1 2
BITMAP
80
ENDCHAR
STARTCHAR cedilla
ENCODING 184
SWIDTH 1000 0
DWIDTH 5 0
BBX 3 2 1 -1
BITMAP
20
E0
ENDCHAR
STARTCHAR uni00B9
ENCODING 185
SWIDTH 625 0
DWIDTH 4 0
BBX 3 4 0 1
BITMAP
C0
40
40
E0
ENDCHAR
STARTCHAR ordmasculine
ENCODING 186
SWIDTH 688 0
DWIDTH 4 0
BBX 3 5 0 0
BITMAP
40
A0
40
00
E0
ENDCHAR
STARTCHAR guillemotright
ENCODING 187
SWIDTH 938 0
DWIDTH 5 0
BBX 4 3 1 1
BITMAP
A0
50
A0
ENDCHAR
STARTCHAR onequarter
ENCODING 188
SWIDTH 1625 0
DWIDTH 10 0
BBX 9 5 0 0
BITMAP
C200
4480
4A80
5380
2080
ENDCHAR
STARTCHAR onehalf
ENCODING 189
SWIDTH 1625 0
DWIDTH 11 0
BBX 9 5 1 0
BITMAP
C200
4700
4880
5100
2380
ENDCHAR
STARTCHAR threequarters
ENCODING 190
SWIDTH 1625 0
DWIDTH 10 0
BBX 9 5 0 0
BITMAP
C200
6480
2A80
D380
2080
ENDCHAR
STARTCHAR questiondown
ENCODING 191
SWIDTH 938 0
DWIDTH 6 0
BBX 4 5 1 0
BITMAP
90
60
90
80
60
ENDCHAR
STARTCHAR Agrave
ENCODING 192
SWIDTH 1562 0
DWIDTH 7 0
BBX 7 5 0 0
BITMAP
10
28
44
FE
82
ENDCHAR
STARTCHAR Aacute
ENCODING 193
SWIDTH 1375 0
DWIDTH 7 0
BBX 5 5 1 0
BITMAP
F0
80
F0
88
F0
ENDCHAR
STARTCHAR Acircumflex
ENCODING 194
SWIDTH 1375 0
DWIDTH 7 0
BBX 5 5 1 0
BITMAP
F0
88
F0
88
F0
ENDCHAR
STARTCHAR Atilde
ENCODING 195
SWIDTH 1188 0
DWIDTH 7 0
BBX 5 5 1 0
BITMAP
F8
48
40
40
E0
ENDCHAR
STARTCHAR Adieresis
ENCODING 196
SWIDTH 1312 0
DWIDTH 9 0
BBX 7 6 1 -1
BITMAP
7E
24
24
44
FE
82
ENDCHAR
STARTCHAR Aring
ENCODING 197
SWIDTH 1375 0
DWIDTH 8 0
BBX 6 5 1 0
BITMAP
FC
44
70
44
FC
ENDCHAR
STARTCHAR AE
ENCODING 198
SWIDTH 2062 0
DWIDTH 11 0
BBX 9 5 1 0
BITMAP
DD80
4900
3E00
4900
DD80
ENDCHAR
STARTCHAR Ccedilla
ENCODING 199
SWIDTH 1062 0
DWIDTH 8 0
BBX 6 5 1 0
BITMAP
78
84
18
84
78
ENDCHAR
STARTCHAR Egrave
ENCODING 200
SWIDTH 1562 0
DWIDTH 9 0
BBX 7 5 1 0
BITMAP
E6
4C
54
64
CE
ENDCHAR
STARTCHAR Eacute
ENCODING 201
SWIDTH 1562 0
DWIDTH 9 0
BBX 7 5 1 0
BITMAP
D6
4C
54
64
CE
ENDCHAR
STARTCHAR Ecircumflex
ENCODING 202
SWIDTH 1500 0
DWIDTH 9 0
BBX 7 5 1 0
BITMAP
E6
48
70
48
E6
ENDCHAR
STARTCHAR Edieresis
ENCODING 203
SWIDTH 1375 0
DWIDTH 8 0
BBX 7 5 0 0
BITMAP
7E
24
24
24
CE
ENDCHAR
STARTCHAR Igrave
ENCODING 204
SWIDTH 1875 0
DWIDTH 11 0
BBX 9 5 1 0
BITMAP
C180
6300
5500
4900
E380
ENDCHAR
STARTCHAR Iacute
ENCODING 205
SWIDTH 1625 0
DWIDTH 9 0
BBX 7 5 1 0
BITMAP
EE
44
7C
44
EE
ENDCHAR
STARTCHAR Icircumflex
ENCODING 206
SWIDTH 1500 0
DWIDTH 8 0
BBX 6 5 1 0
BITMAP
78
84
84
84
78
ENDCHAR
STARTCHAR Idieresis
ENCODING 207
SWIDTH 1625 0
DWIDTH 9 0
BBX 7 5 1 0
BITMAP
FE
44
44
44
EE
ENDCHAR
STARTCHAR Eth
ENCODING 208
SWIDTH 1250 0
DWIDTH 8 0
BBX 6 5 1 0
BITMAP
F8
44
78
40
E0
ENDCHAR
STARTCHAR Ntilde
ENCODING 209
SWIDTH 1438 0
DWIDTH 8 0
BBX 6 5 1 0
BITMAP
78
84
80
84
78
ENDCHAR
STARTCHAR Ograve
ENCODING 210
SWIDTH 1375 0
DWIDTH 7 0
BBX 5 5 1 0
BITMAP
F8
A8
20
20
70
ENDCHAR
STARTCHAR Oacute
ENCODING 211
SWIDTH 1625 0
DWIDTH 9 0
BBX 7 5 1 0
BITMAP
EE
44
28
18
70
ENDCHAR
STARTCHAR Ocircumflex
ENCODING 212
SWIDTH 1750 0
DWIDTH 9 0
BBX 7 5 1 0
BITMAP
7C
92
92
7C
10
ENDCHAR
STARTCHAR Otilde
ENCODING 213
SWIDTH 1688 0
DWIDTH 8 0
BBX 6 5 1 0
BITMAP
CC
48
30
48
CC
ENDCHAR
STARTCHAR Odieresis
ENCODING 214
SWIDTH 1625 0
DWIDTH 9 0
BBX 7 6 1 -1
BITMAP
EE
44
44
44
FE
02
ENDCHAR
STARTCHAR multiply
ENCODING 215
SWIDTH 1625 0
DWIDTH 9 0
BBX 7 5 1 0
BITMAP
EE
44
3C
04
0E
ENDCHAR
STARTCHAR Oslash
ENCODING 216
SWIDTH 2000 0
DWIDTH 11 0
BBX 11 5 0 0
BITMAP
EEE0
4440
4440
4440
FFE0
ENDCHAR
STARTCHAR Ugrave
ENCODING 217
SWIDTH 2000 0
DWIDTH 11 0
BBX 11 6 0 -1
BITMAP
EEE0
4440
4440
4440
FFE0
0020
ENDCHAR
STARTCHAR Uacute
ENCODING 218
SWIDTH 1500 0
DWIDTH 9 0
BBX 7 5 1 0
BITMAP
F0
A0
3C
22
7C
ENDCHAR
STARTCHAR Ucircumflex
ENCODING 219
SWIDTH 1875 0
DWIDTH 11 0
BBX 9 5 1 0
BITMAP
E380
4100
7900
4500
FB80
ENDCHAR
STARTCHAR Udieresis
ENCODING 220
SWIDTH 1375 0
DWIDTH 8 0
BBX 6 5 1 0
BITMAP
E0
40
78
44
F8
ENDCHAR
STARTCHAR Yacute
ENCODING 221
SWIDTH 1375 0
DWIDTH 8 0
BBX 6 5 1 0
BITMAP
78
84
3C
84
78
ENDCHAR
STARTCHAR Thorn
ENCODING 222
SWIDTH 2062 0
DWIDTH 10 0
BBX 8 5 1 0
BITMAP
8E
91
F1
91
8E
ENDCHAR
STARTCHAR germandbls
ENCODING 223
SWIDTH 1500 0
DWIDTH 9 0
BBX 7 5 1 0
BITMAP
3E
44
3C
44
CE
ENDCHAR
STARTCHAR agrave
ENCODING 224
SWIDTH 1000 0
DWIDTH 4 0
BBX 3 4 1 0
BITMAP
E0
20
A0
E0
ENDCHAR
STARTCHAR aacute
ENCODING 225
SWIDTH 1000 0
DWIDTH 4 0
BBX 3 5 1 0
BITMAP
60
80
E0
A0
E0
ENDCHAR
STARTCHAR acircumflex
ENCODING 226
SWIDTH 938 0
DWIDTH 4 0
BBX 3 4 1 0
BITMAP
E0
C0
A0
E0
ENDCHAR
STARTCHAR atilde
ENCODING 227
SWIDTH 812 0
DWIDTH 4 0
BBX 3 4 1 0
BITMAP
E0
80
80
80
ENDCHAR
STARTCHAR adieresis
ENCODING 228
SWIDTH 1062 0
DWIDTH 6 0
BBX 5 5 1 -1
BITMAP
70
50
50
F8
88
ENDCHAR
STARTCHAR aring
ENCODING 229
SWIDTH 938 0
DWIDTH 5 0
BBX 4 4 1 0
BITMAP
60
90
80
60
ENDCHAR
STARTCHAR ae
ENCODING 230
SWIDTH 1562 0
DWIDTH 8 0
BBX 7 4 1 0
BITMAP
92
7C
54
92
ENDCHAR
STARTCHAR ccedilla
ENCODING 231
SWIDTH 812 0
DWIDTH 5 0
BBX 4 4 1 0
BITMAP
E0
20
10
E0
ENDCHAR
STARTCHAR egrave
ENCODING 232
SWIDTH 1125 0
DWIDTH 5 0
BBX 4 4 1 0
BITMAP
90
B0
D0
90
ENDCHAR
STARTCHAR eacute
ENCODING 233
SWIDTH 1125 0
DWIDTH 5 0
BBX 4 5 1 0
BITMAP
60
90
B0
D0
90
ENDCHAR
STARTCHAR ecircumflex
ENCODING 234
SWIDTH 1062 0
DWIDTH 6 0
BBX 5 4 1 0
BITMAP
90
E0
90
98
ENDCHAR
STARTCHAR edieresis
ENCODING 235
SWIDTH 1062 0
DWIDTH 6 0
BBX 5 4 1 0
BITMAP
78
48
48
C8
ENDCHAR
STARTCHAR igrave
ENCODING 236
SWIDTH 1375 0
DWIDTH 7 0
BBX 6 4 1 0
BITMAP
84
CC
B4
84
ENDCHAR
STARTCHAR iacute
ENCODING 237
SWIDTH 1125 0
DWIDTH 5 0
BBX 4 4 1 0
BITMAP
90
90
F0
90
ENDCHAR
STARTCHAR icircumflex
ENCODING 238
SWIDTH 1000 0
DWIDTH 5 0
BBX 4 4 1 0
BITMAP
60
90
90
60
ENDCHAR
STARTCHAR idieresis
ENCODING 239
SWIDTH 1125 0
DWIDTH 5 0
BBX 4 4 1 0
BITMAP
F0
90
90
90
ENDCHAR
STARTCHAR eth
ENCODING 240
SWIDTH 1125 0
DWIDTH 5 0
BBX 4 5 1 -1
BITMAP
E0
90
E0
80
80
ENDCHAR
STARTCHAR ntilde
ENCODING 241
SWIDTH 875 0
DWIDTH 4 0
BBX 3 4 1 0
BITMAP
60
80
80
60
ENDCHAR
STARTCHAR ograve
ENCODING 242
SWIDTH 938 0
DWIDTH 6 0
BBX 5 4 1 0
BITMAP
F8
20
20
20
ENDCHAR
STARTCHAR oacute
ENCODING 243
SWIDTH 1062 0
DWIDTH 6 0
BBX 5 5 1 -1
BITMAP
88
48
30
20
C0
ENDCHAR
STARTCHAR ocircumflex
ENCODING 244
SWIDTH 1250 0
DWIDTH 7 0
BBX 5 5 1 -1
BITMAP
70
A8
A8
70
20
ENDCHAR
STARTCHAR otilde
ENCODING 245
SWIDTH 938 0
DWIDTH 6 0
BBX 5 4 1 0
BITMAP
D8
20
50
D8
ENDCHAR
STARTCHAR odieresis
ENCODING 246
SWIDTH 1125 0
DWIDTH 6 0
BBX 5 5 1 -1
BITMAP
90
90
90
F8
08
ENDCHAR
STARTCHAR divide
ENCODING 247
SWIDTH 1125 0
DWIDTH 5 0
BBX 4 4 1 0
BITMAP
90
90
70
10
ENDCHAR
STARTCHAR oslash
ENCODING 248
SWIDTH 1688 0
DWIDTH 8 0
BBX 7 4 1 0
BITMAP
92
92
92
FE
ENDCHAR
STARTCHAR ugrave
ENCODING 249
SWIDTH 1688 0
DWIDTH 9 0
BBX 8 5 1 -1
BITMAP
92
92
92
FF
01
ENDCHAR
STARTCHAR uacute
ENCODING 250
SWIDTH 1188 0
DWIDTH 7 0
BBX 6 4 1 0
BITMAP
E0
38
24
38
ENDCHAR
STARTCHAR ucircumflex
ENCODING 251
SWIDTH 1438 0
DWIDTH 7 0
BBX 6 4 1 0
BITMAP
84
E4
94
E4
ENDCHAR
STARTCHAR udieresis
ENCODING 252
SWIDTH 1000 0
DWIDTH 5 0
BBX 4 4 1 0
BITMAP
80
E0
90
E0
ENDCHAR
STARTCHAR yacute
ENCODING 253
SWIDTH 812 0
DWIDTH 5 0
BBX 4 4 1 0
BITMAP
E0
30
30
E0
ENDCHAR
STARTCHAR thorn
ENCODING 254
SWIDTH 1438 0
DWIDTH 7 0
BBX 6 4 1 0
BITMAP
98
A4
E4
98
ENDCHAR
STARTCHAR ydieresis
ENCODING 255
SWIDTH 1000 0
DWIDTH 6 0
BBX 5 4 1 0
BITMAP
78
88
78
88
ENDCHAR
ENDFONT
